<svg width="19" height="24" viewBox="0 0 19 24" fill="none" xmlns="http://www.w3.org/2000/svg">
<path d="M15.9706 16.4705V16.6776L16.117 16.824L18.3235 19.0305V19.4999H0.5V19.0305L2.70649 16.824L2.85294 16.6776V16.4705V10.5881C2.85294 7.13898 4.66278 4.37376 7.76233 3.63937L8.14706 3.54822V3.15284V2.35284C8.14706 1.65251 8.71144 1.08813 9.41177 1.08813C10.1121 1.08813 10.6765 1.65251 10.6765 2.35284V3.15284V3.5479L11.0608 3.63928C14.1493 4.3736 15.9706 7.15119 15.9706 10.5881V16.4705ZM11.1955 21.6764C10.9756 22.4541 10.2567 23.0293 9.41177 23.0293C8.55819 23.0293 7.84473 22.4549 7.6271 21.6764H11.1955Z" fill="white" stroke="white"/>
</svg>
